<svg width="800" height="800" viewBox="0 0 1024 1024" class="icon" xmlns="http://www.w3.org/2000/svg"><path d="M210.8 386.2h41v41h-41zm97 0h41v41h-41zm381 0h41v41h-41zm97 0h41v41h-41zm-97 104h41v41h-41zm97 0h41v41h-41zm-1 105h41v41h-41zm-576-104h41v41h-41zm97 0h41v41h-41zm-97 105h41v41h-41zm275 15h64v173h-64zm79 0h76v173h-76zm-163 0h69v173h-69zm127.3-319.6v-6.4c0-1.1-.9-2-2-2h-19.4c-1.1 0-2 .9-2 2v10.3c0 3.7-3 6.8-6.8 6.8h-10c-1.1 0-2 .9-2 2v19.4c0 1.1.9 2 2 2h5.9c1.8 0 4.5 1.4 4.5 3.2l.3 13.3c0 3.3 1 5.9 4.3 5.9h4.2c1.4 0 2.7.5 3.8-.3h14.3c1.7 0 3-1.4 3-3V332c0-3.5 2.8-6.3 6.3-6.3h13.1c1.1 0 2-.9 2-2V301c0-2.4-2-4.4-4.4-4.4h-12c-2.9 0-5.1-2.2-5.1-5z" fill="#6ee7b7"/><path d="M522 353.7h-22.4c-4.9 0-8.8-3.9-8.8-8.8v-14.4c0-.4-.4-.8-.8-.8h-14.4c-4.9 0-8.8-3.9-8.8-8.8v-22.4c0-4.9 3.9-8.8 8.8-8.8h.3v8h-.3c-.4 0-.8.4-.8.8v22.4c0 .4.4.8.8.8H490c4.9 0 8.8 3.9 8.8 8.8v14.4c0 .4.4.8.8.8H522c.4 0 .8-.4.8-.8v-14.4c0-4.9 3.9-8.8 8.8-8.8H546c.4 0 .8-.4.8-.8v-22.4c0-.4-.4-.8-.8-.8h-14.4c-4.9 0-8.8-3.9-8.8-8.8v-14.4c0-.4-.4-.8-.8-.8h-22.4c-.4 0-.8.4-.8.8v14.4c0 4.9-3.9 8.8-8.8 8.8h-3.6v-8h3.6c.4 0 .8-.4.8-.8v-14.4c0-4.9 3.9-8.8 8.8-8.8H522c4.9 0 8.8 3.9 8.8 8.8v14.4c0 .4.4.8.8.8H546c4.9 0 8.8 3.9 8.8 8.8v22.4c0 4.9-3.9 8.8-8.8 8.8h-14.4c-.4 0-.8.4-.8.8v14.4c0 4.9-4 8.8-8.8 8.8zM645.9 792.7H375.7V589.2h270.2v203.5zm-255.2-15h240.2V604.2H390.7v173.5z" fill="#064e3b"/><path d="m315.49 587.755 390.6-.509.02 15-390.6.509z" fill="#064e3b"/><path d="M554.8 788.2h-88v-196h88v196zm-80-8h72v-180h-72v180z" fill="#064e3b"/><path d="m63.26 792.766.016-15 896 1-.017 15z" fill="#064e3b"/><path d="M893.8 793.2h-765V329.7c0-10.8 8.7-19.5 19.5-19.5h258v15h-258c-2.4 0-4.5 2.1-4.5 4.5v448.5h735V329.7c0-2.4-2.1-4.5-4.5-4.5h-258v-15h258c10.8 0 19.5 8.7 19.5 19.5v463.5z" fill="#064e3b"/><path d="M623.8 601.2h-225V229.7c0-10.8 8.7-19.5 19.5-19.5h186c10.8 0 19.5 8.7 19.5 19.5v371.5zm-210-15h195V229.7c0-2.4-2.1-4.5-4.5-4.5h-186c-2.4 0-4.5 2.1-4.5 4.5v356.5zm-277.5 99.5h247v8h-247zm502.468 7.559.032-8 247 1-.032 8zM243.5 431.2h-40c-5.5 0-10-4.5-10-10v-40c0-5.5 4.5-10 10-10h40c5.5 0 10 4.5 10 10v40c0 5.5-4.5 10-10 10zm-40-52c-1.1 0-2 .9-2 2v40c0 1.1.9 2 2 2h40c1.1 0 2-.9 2-2v-40c0-1.1-.9-2-2-2h-40zm137.3 52h-40c-5.5 0-10-4.5-10-10v-40c0-5.5 4.5-10 10-10h40c5.5 0 10 4.5 10 10v40c0 5.5-4.5 10-10 10zm-40-52c-1.1 0-2 .9-2 2v40c0 1.1.9 2 2 2h40c1.1 0 2-.9 2-2v-40c0-1.1-.9-2-2-2h-40zm-57.3 157h-40c-5.5 0-10-4.5-10-10v-40c0-5.5 4.5-10 10-10h40c5.5 0 10 4.5 10 10v40c0 5.5-4.5 10-10 10zm-40-52c-1.1 0-2 .9-2 2v40c0 1.1.9 2 2 2h40c1.1 0 2-.9 2-2v-40c0-1.1-.9-2-2-2h-40zm40 157h-40c-5.5 0-10-4.5-10-10v-40c0-5.5 4.5-10 10-10h40c5.5 0 10 4.5 10 10v40c0 5.5-4.5 10-10 10zm-40-52c-1.1 0-2 .9-2 2v40c0 1.1.9 2 2 2h40c1.1 0 2-.9 2-2v-40c0-1.1-.9-2-2-2h-40zm137.3-53h-40c-5.5 0-10-4.5-10-10v-40c0-5.5 4.5-10 10-10h40c5.5 0 10 4.5 10 10v40c0 5.5-4.5 10-10 10zm-40-52c-1.1 0-2 .9-2 2v40c0 1.1.9 2 2 2h40c1.1 0 2-.9 2-2v-40c0-1.1-.9-2-2-2h-40zm422.7-53h-40c-5.5 0-10-4.5-10-10v-40c0-5.5 4.5-10 10-10h40c5.5 0 10 4.5 10 10v40c0 5.5-4.5 10-10 10zm-40-52c-1.1 0-2 .9-2 2v40c0 1.1.9 2 2 2h40c1.1 0 2-.9 2-2v-40c0-1.1-.9-2-2-2h-40zm137.3 52h-40c-5.5 0-10-4.5-10-10v-40c0-5.5 4.5-10 10-10h40c5.5 0 10 4.5 10 10v40c0 5.5-4.5 10-10 10zm-40-52c-1.1 0-2 .9-2 2v40c0 1.1.9 2 2 2h40c1.1 0 2-.9 2-2v-40c0-1.1-.9-2-2-2h-40zm-57.3 157h-40c-5.5 0-10-4.5-10-10v-40c0-5.5 4.5-10 10-10h40c5.5 0 10 4.5 10 10v40c0 5.5-4.5 10-10 10zm-40-52c-1.1 0-2 .9-2 2v40c0 1.1.9 2 2 2h40c1.1 0 2-.9 2-2v-40c0-1.1-.9-2-2-2h-40zm137.3 157h-40c-5.5 0-10-4.5-10-10v-40c0-5.5 4.5-10 10-10h40c5.5 0 10 4.5 10 10v40c0 5.5-4.5 10-10 10zm-40-52c-1.1 0-2 .9-2 2v40c0 1.1.9 2 2 2h40c1.1 0 2-.9 2-2v-40c0-1.1-.9-2-2-2h-40zm40-53h-40c-5.5 0-10-4.5-10-10v-40c0-5.5 4.5-10 10-10h40c5.5 0 10 4.5 10 10v40c0 5.5-4.5 10-10 10zm-40-52c-1.1 0-2 .9-2 2v40c0 1.1.9 2 2 2h40c1.1 0 2-.9 2-2v-40c0-1.1-.9-2-2-2h-40z" fill="#064e3b"/></svg>